<svg width="24" height="24" viewBox="0 0 24 24" fill="none" xmlns="http://www.w3.org/2000/svg">
<path d="M10.9997 7.82494L6.09967 12.7249C5.89967 12.9249 5.66634 13.0209 5.39967 13.0129C5.133 13.0049 4.89967 12.9006 4.69967 12.6999C4.51634 12.4999 4.42034 12.2666 4.41167 11.9999C4.403 11.7333 4.499 11.4999 4.69967 11.2999L11.2997 4.69994C11.3997 4.59994 11.508 4.52928 11.6247 4.48794C11.7413 4.44661 11.8663 4.42561 11.9997 4.42494C12.133 4.42428 12.258 4.44528 12.3747 4.48794C12.4913 4.53061 12.5997 4.60128 12.6997 4.69994L19.2997 11.2999C19.483 11.4833 19.5747 11.7126 19.5747 11.9879C19.5747 12.2633 19.483 12.5006 19.2997 12.6999C19.0997 12.8999 18.8623 12.9999 18.5877 12.9999C18.313 12.9999 18.0753 12.8999 17.8747 12.6999L12.9997 7.82494V18.9999C12.9997 19.2833 12.9037 19.5209 12.7117 19.7129C12.5197 19.9049 12.2823 20.0006 11.9997 19.9999C11.717 19.9993 11.4797 19.9033 11.2877 19.7119C11.0957 19.5206 10.9997 19.2833 10.9997 18.9999V7.82494Z" fill="black"/>
</svg>
