<svg width="24" height="24" viewBox="0 0 24 24" fill="none" xmlns="http://www.w3.org/2000/svg">
<path d="M7 21C6.45 21 5.97934 20.8043 5.588 20.413C5.19667 20.0217 5.00067 19.5507 5 19V6C4.71667 6 4.47934 5.904 4.288 5.712C4.09667 5.52 4.00067 5.28267 4 5C3.99934 4.71733 4.09534 4.48 4.288 4.288C4.48067 4.096 4.718 4 5 4H9C9 3.71667 9.096 3.47933 9.288 3.288C9.48 3.09667 9.71734 3.00067 10 3H14C14.2833 3 14.521 3.096 14.713 3.288C14.905 3.48 15.0007 3.71733 15 4H19C19.2833 4 19.521 4.096 19.713 4.288C19.905 4.48 20.0007 4.71733 20 5C19.9993 5.28267 19.9033 5.52033 19.712 5.713C19.5207 5.90567 19.2833 6.00133 19 6V19C19 19.55 18.8043 20.021 18.413 20.413C18.0217 20.805 17.5507 21.0007 17 21H7ZM17 6H7V19H17V6Z" fill="black"/>
</svg>
